<?xml version="1.0" standalone="no"?><!DOCTYPE svg PUBLIC "-//W3C//DTD SVG 1.1//EN" "http://www.w3.org/Graphics/SVG/1.1/DTD/svg11.dtd"><svg t="1618756132766" class="icon" viewBox="0 0 1024 1024" version="1.1" xmlns="http://www.w3.org/2000/svg" p-id="5561" xmlns:xlink="http://www.w3.org/1999/xlink" width="200" height="200"><defs><style type="text/css"></style></defs><path d="M635.776 16H191.168c-60.992 0-111.168 51.008-111.168 113.024v766.016c0 62.016 50.176 113.024 111.168 113.024h641.664c60.864 0 111.104-51.008 111.104-113.024v-605.44L635.776 16z m111.04 816.96H277.184c-25.152 0-43.008-21.952-43.008-43.84 0-25.408 21.44-43.776 43.008-43.776h466.048c25.152 0 43.008 21.888 43.008 43.776 7.232 25.6-14.336 43.84-39.424 43.84m0-244.352H277.184c-25.152 0-43.008-21.888-43.008-43.84 0-25.536 21.44-43.776 43.008-43.776h466.048c25.152 0 43.008 22.016 43.008 43.776 7.232 21.952-14.336 43.84-39.424 43.84m-136.192-277.12V70.72l268.8 240.768h-268.8z" p-id="5562"></path></svg>