<?xml version="1.0" standalone="no"?><!DOCTYPE svg PUBLIC "-//W3C//DTD SVG 1.1//EN" "http://www.w3.org/Graphics/SVG/1.1/DTD/svg11.dtd"><svg t="1618756272252" class="icon" viewBox="0 0 1024 1024" version="1.1" xmlns="http://www.w3.org/2000/svg" p-id="6299" xmlns:xlink="http://www.w3.org/1999/xlink" width="200" height="200"><defs><style type="text/css"></style></defs><path d="M512 512m-512 0a512 512 0 1 0 1024 0 512 512 0 1 0-1024 0Z" fill="#79E04B" p-id="6300"></path><path d="M780.8 364.8c-25.6-25.6-64-25.6-89.6 0L460.8 588.8 326.4 454.4c-25.6-25.6-64-25.6-89.6 0-25.6 25.6-25.6 64 0 89.6l179.2 179.2c25.6 25.6 64 25.6 89.6 0l268.8-268.8c32-25.6 32-64 6.4-89.6z" fill="#FFFFFF" p-id="6301"></path></svg>